<?xml version="1.0" encoding="UTF-8"?>
<svg xmlns="http://www.w3.org/2000/svg" version="1.1" width="100" height="100" viewBox="0 0 100 100"><rect x="0" y="0" width="100" height="100" fill="#ffffff"/><g transform="scale(4.762)"><g transform="translate(0,0)"><path fill-rule="evenodd" d="M8 0L8 1L9 1L9 2L8 2L8 5L11 5L11 4L12 4L12 3L13 3L13 0L12 0L12 3L11 3L11 2L10 2L10 0ZM9 2L9 4L11 4L11 3L10 3L10 2ZM8 6L8 7L9 7L9 8L8 8L8 11L11 11L11 6L10 6L10 7L9 7L9 6ZM12 6L12 7L13 7L13 6ZM0 8L0 9L2 9L2 10L0 10L0 12L2 12L2 10L4 10L4 11L3 11L3 13L4 13L4 12L5 12L5 13L7 13L7 12L5 12L5 10L4 10L4 8ZM6 8L6 9L7 9L7 8ZM9 8L9 10L10 10L10 8ZM13 8L13 9L12 9L12 12L11 12L11 14L10 14L10 15L9 15L9 17L8 17L8 21L9 21L9 20L10 20L10 21L11 21L11 19L9 19L9 18L11 18L11 17L13 17L13 16L11 16L11 17L10 17L10 15L11 15L11 14L12 14L12 12L15 12L15 10L16 10L16 9L18 9L18 10L17 10L17 11L18 11L18 12L17 12L17 13L13 13L13 14L16 14L16 16L15 16L15 15L14 15L14 16L15 16L15 17L14 17L14 18L15 18L15 19L13 19L13 18L12 18L12 19L13 19L13 20L14 20L14 21L15 21L15 19L16 19L16 16L17 16L17 17L18 17L18 18L17 18L17 19L18 19L18 18L20 18L20 17L18 17L18 16L19 16L19 15L21 15L21 13L20 13L20 12L19 12L19 11L18 11L18 10L19 10L19 8L16 8L16 9L15 9L15 10L14 10L14 11L13 11L13 9L14 9L14 8ZM20 8L20 10L21 10L21 8ZM6 10L6 11L7 11L7 10ZM8 12L8 14L9 14L9 12ZM18 12L18 13L17 13L17 16L18 16L18 15L19 15L19 14L20 14L20 13L19 13L19 12ZM18 13L18 14L19 14L19 13ZM16 20L16 21L17 21L17 20ZM19 20L19 21L20 21L20 20ZM0 0L0 7L7 7L7 0ZM1 1L1 6L6 6L6 1ZM2 2L2 5L5 5L5 2ZM14 0L14 7L21 7L21 0ZM15 1L15 6L20 6L20 1ZM16 2L16 5L19 5L19 2ZM0 14L0 21L7 21L7 14ZM1 15L1 20L6 20L6 15ZM2 16L2 19L5 19L5 16Z" fill="#000000"/></g></g></svg>
