<?xml version="1.0" encoding="UTF-8"?>
<svg xmlns="http://www.w3.org/2000/svg" version="1.1" width="100" height="100" viewBox="0 0 100 100"><rect x="0" y="0" width="100" height="100" fill="#ffffff"/><g transform="scale(4.762)"><g transform="translate(0,0)"><path fill-rule="evenodd" d="M8 0L8 2L9 2L9 4L8 4L8 9L7 9L7 8L5 8L5 10L4 10L4 9L3 9L3 8L0 8L0 11L3 11L3 13L4 13L4 11L5 11L5 12L6 12L6 13L7 13L7 12L8 12L8 14L9 14L9 13L11 13L11 11L10 11L10 12L9 12L9 10L8 10L8 9L15 9L15 10L14 10L14 11L12 11L12 12L13 12L13 13L14 13L14 11L15 11L15 12L16 12L16 13L15 13L15 14L10 14L10 16L9 16L9 15L8 15L8 16L9 16L9 18L8 18L8 21L9 21L9 20L10 20L10 21L13 21L13 20L12 20L12 18L11 18L11 19L9 19L9 18L10 18L10 17L11 17L11 15L15 15L15 16L12 16L12 17L15 17L15 18L13 18L13 19L17 19L17 18L16 18L16 17L18 17L18 18L19 18L19 19L18 19L18 20L15 20L15 21L21 21L21 18L19 18L19 17L20 17L20 16L17 16L17 15L20 15L20 14L19 14L19 13L17 13L17 12L16 12L16 11L18 11L18 12L20 12L20 13L21 13L21 12L20 12L20 10L21 10L21 8L19 8L19 9L20 9L20 10L16 10L16 9L17 9L17 8L12 8L12 7L13 7L13 6L12 6L12 7L11 7L11 5L10 5L10 7L9 7L9 4L10 4L10 3L11 3L11 4L12 4L12 5L13 5L13 3L12 3L12 2L13 2L13 0ZM10 1L10 2L11 2L11 1ZM2 9L2 10L3 10L3 9ZM6 9L6 10L7 10L7 11L6 11L6 12L7 12L7 11L8 11L8 10L7 10L7 9ZM0 12L0 13L1 13L1 12ZM15 16L15 17L16 17L16 16ZM19 19L19 20L20 20L20 19ZM0 0L0 7L7 7L7 0ZM1 1L1 6L6 6L6 1ZM2 2L2 5L5 5L5 2ZM14 0L14 7L21 7L21 0ZM15 1L15 6L20 6L20 1ZM16 2L16 5L19 5L19 2ZM0 14L0 21L7 21L7 14ZM1 15L1 20L6 20L6 15ZM2 16L2 19L5 19L5 16Z" fill="#000000"/></g></g></svg>
