<?xml version="1.0" encoding="UTF-8"?>
<svg xmlns="http://www.w3.org/2000/svg" version="1.1" width="100" height="100" viewBox="0 0 100 100"><rect x="0" y="0" width="100" height="100" fill="#ffffff"/><g transform="scale(4.762)"><g transform="translate(0,0)"><path fill-rule="evenodd" d="M8 0L8 1L9 1L9 4L10 4L10 5L11 5L11 6L10 6L10 7L9 7L9 6L8 6L8 8L9 8L9 10L10 10L10 11L11 11L11 12L8 12L8 9L7 9L7 8L6 8L6 9L7 9L7 10L6 10L6 11L5 11L5 10L4 10L4 12L2 12L2 11L1 11L1 10L3 10L3 9L5 9L5 8L3 8L3 9L2 9L2 8L0 8L0 9L1 9L1 10L0 10L0 11L1 11L1 13L4 13L4 12L5 12L5 13L7 13L7 12L8 12L8 14L11 14L11 12L12 12L12 11L11 11L11 8L12 8L12 10L13 10L13 11L14 11L14 10L15 10L15 12L16 12L16 13L14 13L14 12L13 12L13 13L12 13L12 16L11 16L11 15L10 15L10 16L8 16L8 18L9 18L9 19L8 19L8 21L9 21L9 20L10 20L10 16L11 16L11 17L12 17L12 18L11 18L11 19L12 19L12 21L14 21L14 20L15 20L15 21L17 21L17 18L18 18L18 17L19 17L19 15L20 15L20 16L21 16L21 12L20 12L20 11L19 11L19 9L18 9L18 10L17 10L17 9L15 9L15 8L14 8L14 9L13 9L13 4L12 4L12 3L11 3L11 2L12 2L12 1L13 1L13 0ZM10 1L10 2L11 2L11 1ZM11 4L11 5L12 5L12 4ZM11 6L11 7L12 7L12 6ZM20 8L20 9L21 9L21 8ZM16 10L16 11L17 11L17 10ZM6 11L6 12L7 12L7 11ZM18 11L18 12L17 12L17 13L18 13L18 14L17 14L17 15L16 15L16 16L15 16L15 18L16 18L16 17L17 17L17 16L18 16L18 14L19 14L19 13L20 13L20 12L19 12L19 11ZM13 13L13 14L14 14L14 15L15 15L15 14L14 14L14 13ZM13 16L13 17L14 17L14 16ZM12 18L12 19L13 19L13 18ZM19 18L19 20L18 20L18 21L20 21L20 19L21 19L21 18ZM0 0L0 7L7 7L7 0ZM1 1L1 6L6 6L6 1ZM2 2L2 5L5 5L5 2ZM14 0L14 7L21 7L21 0ZM15 1L15 6L20 6L20 1ZM16 2L16 5L19 5L19 2ZM0 14L0 21L7 21L7 14ZM1 15L1 20L6 20L6 15ZM2 16L2 19L5 19L5 16Z" fill="#000000"/></g></g></svg>
