<?xml version="1.0" encoding="UTF-8"?>
<svg xmlns="http://www.w3.org/2000/svg" version="1.1" width="100" height="100" viewBox="0 0 100 100"><rect x="0" y="0" width="100" height="100" fill="#ffffff"/><g transform="scale(4.762)"><g transform="translate(0,0)"><path fill-rule="evenodd" d="M8 0L8 4L9 4L9 5L8 5L8 7L9 7L9 5L10 5L10 7L11 7L11 5L12 5L12 7L13 7L13 2L12 2L12 1L13 1L13 0L12 0L12 1L11 1L11 2L10 2L10 1L9 1L9 0ZM9 3L9 4L10 4L10 3ZM11 3L11 4L12 4L12 3ZM0 8L0 9L1 9L1 10L0 10L0 11L1 11L1 13L8 13L8 14L9 14L9 15L8 15L8 17L9 17L9 15L11 15L11 16L10 16L10 18L9 18L9 19L8 19L8 21L9 21L9 19L11 19L11 21L12 21L12 19L13 19L13 20L14 20L14 21L15 21L15 20L16 20L16 19L15 19L15 20L14 20L14 19L13 19L13 18L16 18L16 17L17 17L17 16L18 16L18 18L17 18L17 20L18 20L18 21L21 21L21 19L20 19L20 20L18 20L18 19L19 19L19 18L21 18L21 17L20 17L20 16L18 16L18 12L20 12L20 13L19 13L19 14L20 14L20 15L21 15L21 12L20 12L20 11L21 11L21 10L20 10L20 9L21 9L21 8L17 8L17 9L18 9L18 10L14 10L14 9L13 9L13 8L12 8L12 11L11 11L11 9L10 9L10 10L9 10L9 11L11 11L11 12L6 12L6 11L7 11L7 10L8 10L8 9L7 9L7 8L4 8L4 11L3 11L3 10L2 10L2 8ZM15 8L15 9L16 9L16 8ZM6 9L6 10L5 10L5 11L4 11L4 12L5 12L5 11L6 11L6 10L7 10L7 9ZM1 10L1 11L2 11L2 12L3 12L3 11L2 11L2 10ZM18 10L18 11L20 11L20 10ZM13 11L13 12L12 12L12 13L9 13L9 14L12 14L12 15L13 15L13 17L15 17L15 16L17 16L17 15L14 15L14 14L12 14L12 13L13 13L13 12L14 12L14 11ZM16 11L16 13L17 13L17 11ZM11 16L11 17L12 17L12 16ZM0 0L0 7L7 7L7 0ZM1 1L1 6L6 6L6 1ZM2 2L2 5L5 5L5 2ZM14 0L14 7L21 7L21 0ZM15 1L15 6L20 6L20 1ZM16 2L16 5L19 5L19 2ZM0 14L0 21L7 21L7 14ZM1 15L1 20L6 20L6 15ZM2 16L2 19L5 19L5 16Z" fill="#000000"/></g></g></svg>
