<?xml version="1.0" encoding="UTF-8"?>
<svg xmlns="http://www.w3.org/2000/svg" version="1.1" width="100" height="100" viewBox="0 0 100 100"><rect x="0" y="0" width="100" height="100" fill="#ffffff"/><g transform="scale(4.762)"><g transform="translate(0,0)"><path fill-rule="evenodd" d="M8 0L8 2L9 2L9 4L8 4L8 9L7 9L7 8L5 8L5 9L3 9L3 8L0 8L0 9L1 9L1 10L0 10L0 11L1 11L1 10L2 10L2 9L3 9L3 12L1 12L1 13L8 13L8 14L11 14L11 15L10 15L10 16L9 16L9 15L8 15L8 16L9 16L9 17L10 17L10 18L8 18L8 21L11 21L11 20L12 20L12 21L21 21L21 18L19 18L19 19L20 19L20 20L18 20L18 18L17 18L17 17L20 17L20 16L17 16L17 15L20 15L20 14L19 14L19 13L17 13L17 12L16 12L16 11L18 11L18 12L20 12L20 13L21 13L21 12L20 12L20 10L21 10L21 8L19 8L19 9L20 9L20 10L16 10L16 9L17 9L17 8L12 8L12 7L13 7L13 6L12 6L12 7L11 7L11 5L10 5L10 7L9 7L9 4L10 4L10 3L11 3L11 4L12 4L12 5L13 5L13 3L12 3L12 2L13 2L13 0ZM10 1L10 2L11 2L11 1ZM5 9L5 10L4 10L4 11L5 11L5 10L7 10L7 11L6 11L6 12L7 12L7 11L8 11L8 10L7 10L7 9ZM9 9L9 11L10 11L10 12L8 12L8 13L10 13L10 12L11 12L11 14L13 14L13 16L12 16L12 15L11 15L11 16L12 16L12 17L11 17L11 18L12 18L12 19L13 19L13 18L14 18L14 17L15 17L15 19L14 19L14 20L15 20L15 19L16 19L16 20L17 20L17 19L16 19L16 17L17 17L17 16L14 16L14 14L15 14L15 13L16 13L16 12L15 12L15 11L14 11L14 14L13 14L13 12L12 12L12 11L13 11L13 9L11 9L11 11L10 11L10 9ZM13 16L13 17L14 17L14 16ZM10 19L10 20L11 20L11 19ZM0 0L0 7L7 7L7 0ZM1 1L1 6L6 6L6 1ZM2 2L2 5L5 5L5 2ZM14 0L14 7L21 7L21 0ZM15 1L15 6L20 6L20 1ZM16 2L16 5L19 5L19 2ZM0 14L0 21L7 21L7 14ZM1 15L1 20L6 20L6 15ZM2 16L2 19L5 19L5 16Z" fill="#000000"/></g></g></svg>
